<svg version="1" xmlns="http://www.w3.org/2000/svg" width="1666.667" height="1666.667" viewBox="0 0 1250.000000 1250.000000"><path d="M592 .7C499.9 7 420.3 28.2 343.5 67c-97.2 49.1-178.9 121.6-238.9 211.8-49.5 74.5-82.4 158-96.5 245.2C1.6 564.4 1 573 1 624.7c0 49.9.5 58.3 6.1 95.3 13.5 89.5 47.6 176.8 99 253.7 66.5 99.3 163 179.1 273.4 226 75.7 32.2 151.3 48.3 233.7 50 126.3 2.5 249.2-33.1 355.8-103.1 31.8-20.9 71.1-52.8 98-79.6 6.9-6.8 29.8-32.3 38.8-43 77.6-93.1 127.7-211.9 140.1-332 5.5-54.2 5.5-80.6 0-134-13.2-126.3-66-247.4-149.7-343.1-29.9-34.1-56.1-58.8-90.6-85.3C895.7 45.1 760.1-.7 622.5.2c-14.3.1-28 .3-30.5.5zM355 382.6v177.7l40.5-.4 40.5-.4V296h105v264h168.7l4.2 5.7c2.4 3.2 6.2 9.4 8.5 13.7 2.2 4.3 4.6 8.6 5.1 9.5.6.9 3.2 5.6 5.9 10.6 2.7 4.9 5.5 9.7 6.1 10.5.7.8 3.2 5.1 5.5 9.5 5.8 10.8 8.9 16.1 12.7 21.9 1.8 2.6 3.6 5.9 3.9 7.2l.6 2.4H896v-90l2.6-.6c3.5-.9 9.3-.9 59.7-.7l42.7.3v485H896V742h-81v303H709V742H537.5l-4.7-9.3c-2.7-5.1-4.8-9.7-4.8-10.4 0-.6-1.1-2-2.5-3.1s-2.5-2.5-2.5-3c0-.6-1.3-3.3-2.8-5.9-1.5-2.6-3.6-6.8-4.7-9.3-1-2.5-3.1-6.1-4.6-8-1.5-1.9-4.4-7.1-6.5-11.5-2.1-4.4-4-8.2-4.3-8.5-.8-.7-6.5-11.4-9.2-17.3-1.5-3.3-2.6-4.6-3.6-4.3-.8.4-30.9.6-66.9.6H355v393H249V205h106v177.6z"/></svg>